<?xml version="1.0" encoding="utf-8"?>
<!-- Generator: Adobe Illustrator 22.0.1, SVG Export Plug-In . SVG Version: 6.00 Build 0)  -->
<svg version="1.1" id="图层_1" xmlns="http://www.w3.org/2000/svg" xmlns:xlink="http://www.w3.org/1999/xlink" x="0px" y="0px"
	 viewBox="0 0 81 81" style="enable-background:new 0 0 81 81;" xml:space="preserve">
<style type="text/css">
	.st0{opacity:0.4;enable-background:new    ;}
	.st1{fill:#EAEAEA;}
	.st2{fill:url(#SVGID_1_);}
	.st3{opacity:0.8;enable-background:new    ;}
	.st4{fill:url(#SVGID_2_);}
	.st5{fill:url(#SVGID_3_);}
	.st6{opacity:0.5;fill:url(#SVGID_4_);enable-background:new    ;}
</style>
<g id="按钮_2_">
	<path class="st0" d="M75.8,37.8c0-19.7-16-35.7-35.7-35.7S4.5,18.1,4.5,37.8c0,13.2,7.2,24.7,17.8,30.9V81H58V68.7
		C68.7,62.5,75.8,51,75.8,37.8z"/>
	<path class="st1" d="M74.2,35c0-18.8-15.2-34-34-34s-34,15.2-34,34c0,12.6,6.8,23.6,17,29.4V80h34V64.4
		C67.3,58.6,74.2,47.6,74.2,35z"/>
	
		<linearGradient id="SVGID_1_" gradientUnits="userSpaceOnUse" x1="40.2" y1="1" x2="40.2" y2="80" gradientTransform="matrix(1 0 0 -1 0 82)">
		<stop  offset="0" style="stop-color:#000000"/>
		<stop  offset="1.714400e-02" style="stop-color:#050505"/>
		<stop  offset="3.736850e-02" style="stop-color:#131313"/>
		<stop  offset="5.915686e-02" style="stop-color:#2B2B2B"/>
		<stop  offset="8.204062e-02" style="stop-color:#4C4C4C"/>
		<stop  offset="0.1058" style="stop-color:#777777"/>
		<stop  offset="0.1299" style="stop-color:#AAAAAA"/>
		<stop  offset="0.144" style="stop-color:#CCCCCC"/>
		<stop  offset="0.1494" style="stop-color:#B5B5B5"/>
		<stop  offset="0.1595" style="stop-color:#919191"/>
		<stop  offset="0.1708" style="stop-color:#717171"/>
		<stop  offset="0.1834" style="stop-color:#555555"/>
		<stop  offset="0.1976" style="stop-color:#3F3F3F"/>
		<stop  offset="0.2142" style="stop-color:#2E2E2E"/>
		<stop  offset="0.2346" style="stop-color:#232323"/>
		<stop  offset="0.2634" style="stop-color:#1C1C1C"/>
		<stop  offset="0.3431" style="stop-color:#1A1A1A"/>
		<stop  offset="0.3476" style="stop-color:#202020"/>
		<stop  offset="0.3863" style="stop-color:#4D4D4D"/>
		<stop  offset="0.4266" style="stop-color:#747474"/>
		<stop  offset="0.4679" style="stop-color:#949494"/>
		<stop  offset="0.5105" style="stop-color:#ADADAD"/>
		<stop  offset="0.5551" style="stop-color:#BEBEBE"/>
		<stop  offset="0.6029" style="stop-color:#C9C9C9"/>
		<stop  offset="0.6594" style="stop-color:#CCCCCC"/>
		<stop  offset="0.746" style="stop-color:#C9C9C9"/>
		<stop  offset="0.7981" style="stop-color:#C1C1C1"/>
		<stop  offset="0.841" style="stop-color:#B3B3B3"/>
		<stop  offset="0.879" style="stop-color:#9E9E9E"/>
		<stop  offset="0.9137" style="stop-color:#848484"/>
		<stop  offset="0.946" style="stop-color:#646464"/>
		<stop  offset="0.9759" style="stop-color:#3E3E3E"/>
		<stop  offset="1" style="stop-color:#1A1A1A"/>
	</linearGradient>
	<path class="st2" d="M74.2,36c0-18.8-15.2-34-34-34s-34,15.2-34,34c0,12.6,6.8,23.6,17,29.4V81h34V65.4
		C67.3,59.6,74.2,48.6,74.2,36z"/>
	<path class="st3" d="M74.2,36c0-18.8-15.2-34-34-34s-34,15.2-34,34c0,12.6,6.8,23.6,17,29.4V81h34V65.4
		C67.3,59.6,74.2,48.6,74.2,36z"/>
	
		<linearGradient id="SVGID_2_" gradientUnits="userSpaceOnUse" x1="6.2" y1="40.5" x2="52.8223" y2="40.5" gradientTransform="matrix(1 0 0 -1 0 82)">
		<stop  offset="0" style="stop-color:#FFFFFF"/>
		<stop  offset="0.1413" style="stop-color:#FFFFFF;stop-opacity:0.8587"/>
		<stop  offset="1" style="stop-color:#FFFFFF;stop-opacity:0"/>
	</linearGradient>
	<path class="st4" d="M48.7,36c0-18.8,10.3-34-8.5-34s-34,15.2-34,34c0,12.6,6.8,23.6,17,29.4V81h25V65.4
		C58.3,59.6,48.7,48.6,48.7,36z"/>
	
		<linearGradient id="SVGID_3_" gradientUnits="userSpaceOnUse" x1="-8.5512" y1="40.5" x2="38.1155" y2="40.5" gradientTransform="matrix(-1 0 0 -1 65.6488 82)">
		<stop  offset="0" style="stop-color:#FFFFFF"/>
		<stop  offset="0.1413" style="stop-color:#FFFFFF;stop-opacity:0.8587"/>
		<stop  offset="1" style="stop-color:#FFFFFF;stop-opacity:0"/>
	</linearGradient>
	<path class="st5" d="M31.7,36c0-18.8-10.3-34,8.5-34s34,15.2,34,34c0,12.6-6.8,23.6-17,29.4V81h-25V65.4C22,59.6,31.7,48.6,31.7,36
		z"/>
	
		<radialGradient id="SVGID_4_" cx="43.9512" cy="40.5" r="36.8529" gradientTransform="matrix(0.8897 0 0 -1 1.0466 82)" gradientUnits="userSpaceOnUse">
		<stop  offset="0" style="stop-color:#000000;stop-opacity:0"/>
		<stop  offset="0.8139" style="stop-color:#000000;stop-opacity:0.4878"/>
		<stop  offset="0.8343" style="stop-color:#000000;stop-opacity:0.5"/>
		<stop  offset="1" style="stop-color:#000000;stop-opacity:0"/>
	</radialGradient>
	<path class="st6" d="M70.4,36c0-18.8-13.5-34-30.2-34S9.9,17.2,9.9,36c0,12.6,4.3,23.6,13.3,29.4V81h33.9V65.4
		C66.2,59.6,70.4,48.6,70.4,36z"/>
</g>
</svg>
