<?xml version="1.0" encoding="utf-8"?>
<!-- Generator: Adobe Illustrator 22.0.1, SVG Export Plug-In . SVG Version: 6.00 Build 0)  -->
<svg version="1.1" id="图层_1" xmlns="http://www.w3.org/2000/svg" xmlns:xlink="http://www.w3.org/1999/xlink" x="0px" y="0px"
	 viewBox="0 0 500 500" style="enable-background:new 0 0 500 500;" xml:space="preserve">
<style type="text/css">
	.st0{display:none;}
	.st1{display:inline;}
	.st2{opacity:0.2;}
	.st3{fill:url(#SVGID_1_);}
	.st4{opacity:0.3;fill:#FFFFFF;}
	.st5{fill:#13120E;}
	.st6{fill:#FFC200;}
	.st7{fill:url(#SVGID_2_);}
	.st8{fill:url(#SVGID_3_);}
	.st9{fill:url(#SVGID_4_);}
	.st10{opacity:0.6;fill:#FFFFFF;}
	.st11{opacity:0.1;fill:#FFFFFF;}
	.st12{opacity:0.5;fill:url(#SVGID_5_);}
	.st13{opacity:0.3;fill:url(#SVGID_6_);}
	.st14{fill:#351F05;}
	.st15{opacity:0.4;}
	.st16{fill:#EAEAEA;}
	.st17{fill:url(#SVGID_7_);}
	.st18{opacity:0.3;}
	.st19{fill:url(#SVGID_8_);}
	.st20{fill:url(#SVGID_9_);}
	.st21{opacity:0.5;fill:url(#SVGID_10_);}
	.st22{fill:url(#SVGID_11_);}
	.st23{fill:url(#SVGID_12_);}
	.st24{clip-path:url(#SVGID_14_);fill:#262631;}
	.st25{opacity:0.8;clip-path:url(#SVGID_14_);fill:#262631;}
	.st26{opacity:0.7;clip-path:url(#SVGID_14_);fill:#262631;}
	.st27{opacity:0.5;clip-path:url(#SVGID_14_);fill:#262631;}
	.st28{opacity:0.6;clip-path:url(#SVGID_14_);fill:#262631;}
	.st29{opacity:0.4;clip-path:url(#SVGID_14_);fill:#262631;}
	.st30{opacity:0.3;clip-path:url(#SVGID_14_);fill:#262631;}
	.st31{fill:url(#SVGID_15_);}
	.st32{fill:url(#SVGID_16_);}
	.st33{fill:url(#SVGID_17_);}
	.st34{fill:#141820;}
	.st35{opacity:0.5;fill:url(#SVGID_18_);}
	.st36{opacity:0.3;fill:url(#SVGID_19_);}
	.st37{display:inline;opacity:0.4;}
	.st38{display:inline;fill:#EAEAEA;}
	.st39{display:inline;fill:url(#SVGID_20_);}
	.st40{display:inline;opacity:0.3;}
	.st41{display:inline;fill:url(#SVGID_21_);}
	.st42{display:inline;fill:url(#SVGID_22_);}
	.st43{display:inline;opacity:0.5;fill:url(#SVGID_23_);}
</style>
<g>
	<g id="底座_1_">
		<ellipse class="st2" cx="250" cy="326.8" rx="160" ry="130"/>
		<linearGradient id="SVGID_11_" gradientUnits="userSpaceOnUse" x1="250" y1="452.75" x2="250" y2="192.75">
			<stop  offset="0" style="stop-color:#000000;stop-opacity:0.7"/>
			<stop  offset="0.4025" style="stop-color:#000000"/>
			<stop  offset="1" style="stop-color:#000000;stop-opacity:0.3"/>
		</linearGradient>
		<ellipse class="st22" cx="250" cy="322.8" rx="160" ry="130"/>
		<ellipse class="st4" cx="250" cy="293.8" rx="130.4" ry="106"/>
		<ellipse class="st5" cx="250" cy="292.8" rx="130.4" ry="106"/>
	</g>
	<g>
		<path class="st6" d="M328.3,342.2H171.7c-15.5,0-28.2-12.7-28.2-28.2V83.4c0-15.5,12.7-28.2,28.2-28.2h156.6
			c15.5,0,28.2,12.7,28.2,28.2v230.6C356.5,329.6,343.8,342.2,328.3,342.2z"/>
		<linearGradient id="SVGID_15_" gradientUnits="userSpaceOnUse" x1="250" y1="342.25" x2="250" y2="55.25">
			<stop  offset="0" style="stop-color:#FFC213"/>
			<stop  offset="0.1546" style="stop-color:#FFC31F;stop-opacity:0.8454"/>
			<stop  offset="0.4327" style="stop-color:#FFC53E;stop-opacity:0.5673"/>
			<stop  offset="0.7996" style="stop-color:#FFC871;stop-opacity:0.2004"/>
			<stop  offset="1" style="stop-color:#FFCA8F;stop-opacity:0"/>
		</linearGradient>
		<path class="st31" d="M328.3,342.2H171.7c-15.5,0-28.2-12.7-28.2-28.2V83.4c0-15.5,12.7-28.2,28.2-28.2h156.6
			c15.5,0,28.2,12.7,28.2,28.2v230.6C356.5,329.6,343.8,342.2,328.3,342.2z"/>
		<linearGradient id="SVGID_16_" gradientUnits="userSpaceOnUse" x1="250" y1="331.25" x2="250" y2="250.25">
			<stop  offset="0" style="stop-color:#FFFFFF;stop-opacity:0.5"/>
			<stop  offset="0.1413" style="stop-color:#FFFFFF;stop-opacity:0.4293"/>
			<stop  offset="1" style="stop-color:#FFFFFF;stop-opacity:0"/>
		</linearGradient>
		<path class="st32" d="M337.3,331.2H162.7c-10.5,0-19.2-8.6-19.2-19.2v-42.6c0-10.5,8.6-19.2,19.2-19.2h174.6
			c10.5,0,19.2,8.6,19.2,19.2v42.6C356.5,322.6,347.9,331.2,337.3,331.2z"/>
		<linearGradient id="SVGID_17_" gradientUnits="userSpaceOnUse" x1="250" y1="55.25" x2="250" y2="342.25">
			<stop  offset="0" style="stop-color:#FCEE21"/>
			<stop  offset="4.295486e-02" style="stop-color:#FCE833;stop-opacity:0.957"/>
			<stop  offset="0.1265" style="stop-color:#FDDF4F;stop-opacity:0.8735"/>
			<stop  offset="0.2205" style="stop-color:#FED767;stop-opacity:0.7795"/>
			<stop  offset="0.3276" style="stop-color:#FED179;stop-opacity:0.6724"/>
			<stop  offset="0.4555" style="stop-color:#FFCD86;stop-opacity:0.5445"/>
			<stop  offset="0.6247" style="stop-color:#FFCB8D;stop-opacity:0.3753"/>
			<stop  offset="1" style="stop-color:#FFCA8F;stop-opacity:0"/>
		</linearGradient>
		<path class="st33" d="M328.3,342.2H171.7c-15.5,0-28.2-12.7-28.2-28.2V83.4c0-15.5,12.7-28.2,28.2-28.2h156.6
			c15.5,0,28.2,12.7,28.2,28.2v230.6C356.5,329.6,343.8,342.2,328.3,342.2z"/>
		<path class="st34" d="M335.3,250.2H165.7c-3.4,0-6.2-2.8-6.2-6.2V142.5c0-3.4,2.8-6.2,6.2-6.2h169.6c3.4,0,6.2,2.8,6.2,6.2V244
			C341.5,247.5,338.7,250.2,335.3,250.2z"/>
		<polygon class="st10" points="165.5,141.2 165.5,244.2 188.5,214.2 188.5,170.2 		"/>
		<polygon class="st11" points="335.5,141.2 335.5,244.2 312.5,214.2 312.5,170.2 		"/>
		<rect x="188.5" y="170.2" width="124" height="44"/>
		<linearGradient id="SVGID_18_" gradientUnits="userSpaceOnUse" x1="352.5" y1="192.75" x2="343.5" y2="192.75">
			<stop  offset="0" style="stop-color:#FFFFFF"/>
			<stop  offset="1" style="stop-color:#FFFFFF;stop-opacity:0"/>
		</linearGradient>
		<path class="st35" d="M349,250.2h-2c-1.9,0-3.5-1.6-3.5-3.5v-108c0-1.9,1.6-3.5,3.5-3.5h2c1.9,0,3.5,1.6,3.5,3.5v108
			C352.5,248.7,350.9,250.2,349,250.2z"/>
		<linearGradient id="SVGID_19_" gradientUnits="userSpaceOnUse" x1="155" y1="192.75" x2="146" y2="192.75">
			<stop  offset="0" style="stop-color:#FFFFFF"/>
			<stop  offset="1" style="stop-color:#FFFFFF;stop-opacity:0"/>
		</linearGradient>
		<path class="st36" d="M151.5,250.2h-2c-1.9,0-3.5-1.6-3.5-3.5v-108c0-1.9,1.6-3.5,3.5-3.5h2c1.9,0,3.5,1.6,3.5,3.5v108
			C155,248.7,153.4,250.2,151.5,250.2z"/>
		<rect x="230.1" y="109.2" class="st14" width="41.9" height="14"/>
	</g>
</g>
</svg>
